<?xml version="1.0" standalone="no"?>
<!DOCTYPE svg PUBLIC "-//W3C//DTD SVG 20010904//EN"
 "http://www.w3.org/TR/2001/REC-SVG-20010904/DTD/svg10.dtd">
<svg version="1.0" xmlns="http://www.w3.org/2000/svg"
 width="425.000000pt" height="425.000000pt" viewBox="0 0 425.000000 425.000000"
 preserveAspectRatio="xMidYMid meet">
<metadata>
Created by potrace 1.14, written by Peter Selinger 2001-2017
</metadata>
<g transform="translate(0.000000,425.000000) scale(0.100000,-0.100000)"
fill="#000000" stroke="none">
<path d="M2085 4240 c-22 -5 -54 -11 -71 -14 -159 -29 -317 -85 -479 -170
-407 -212 -610 -414 -792 -788 -92 -188 -157 -364 -177 -483 -3 -16 -8 -41
-11 -55 -21 -109 -43 -332 -44 -459 l-1 -75 -52 -50 c-39 -37 -76 -60 -135
-85 -46 -18 -83 -37 -83 -41 0 -22 133 -138 192 -168 36 -18 69 -39 72 -47 9
-24 16 -91 21 -205 2 -58 7 -116 9 -130 3 -14 7 -45 10 -70 17 -132 44 -212
132 -399 31 -64 74 -156 97 -206 79 -174 178 -296 337 -417 182 -138 317 -214
481 -272 55 -20 101 -35 104 -35 5 1 32 -4 95 -16 14 -3 45 -8 70 -11 25 -3
56 -7 70 -10 61 -10 240 -18 410 -18 179 -1 188 0 270 28 197 67 549 235 644
308 101 77 194 183 280 316 49 77 145 269 171 343 41 115 50 239 26 377 -14
80 -15 81 -131 141 -56 30 -86 66 -94 113 l-6 37 55 -19 c31 -11 90 -20 137
-22 80 -3 82 -2 97 25 15 26 14 30 -13 81 -33 60 -31 82 9 147 41 64 58 116
51 154 -4 19 -9 35 -11 35 -2 0 -28 -13 -58 -30 -30 -16 -58 -30 -61 -30 -3 0
-3 13 0 29 12 59 -40 147 -82 139 -10 -2 -34 -32 -55 -66 -42 -74 -86 -122
-97 -107 -4 6 -20 18 -35 28 -32 21 -48 55 -36 77 4 8 24 33 43 54 41 45 132
214 127 236 -1 8 -10 23 -18 32 -12 14 -13 23 -3 52 11 35 12 36 40 21 16 -8
49 -15 73 -15 42 0 45 2 91 66 66 93 91 155 160 409 60 221 73 291 82 420 4
70 2 94 -9 110 -14 19 -16 18 -54 -16 -66 -60 -135 -103 -183 -114 -16 -4
-172 -19 -210 -20 -72 -2 -86 5 -176 95 -73 72 -174 203 -174 225 0 19 -116
182 -162 228 -57 56 -254 179 -353 220 -33 13 -125 46 -205 72 -129 43 -156
48 -245 50 -55 2 -118 -1 -140 -5z"/>
</g>
</svg>
